<svg width="31" height="31" viewBox="0 0 31 31" fill="none" xmlns="http://www.w3.org/2000/svg">
<path d="M28.4603 9.47664C29.4911 11.4499 30.0294 13.6322 30.0313 15.8463C30.0313 19.6003 28.5003 23.2007 25.7752 25.8552C23.05 28.5097 19.3539 30.001 15.5 30.001C11.6461 30.001 7.94999 28.5097 5.22485 25.8552C2.49971 23.2007 0.96875 19.6003 0.96875 15.8463C0.96875 12.0922 2.49971 8.49189 5.22485 5.83736C7.94999 3.18284 11.6461 1.69154 15.5 1.69154C17.7581 1.68868 19.9855 2.20095 22.0037 3.18735M27.4549 1.55764C26.8971 1.11773 26.183 0.910998 25.4691 0.982695C24.7551 1.05439 24.0994 1.39868 23.6454 1.9402L12.0243 15.961L10.2177 21.6994C10.1914 21.7834 10.1915 21.873 10.2179 21.9569C10.2443 22.0408 10.2959 22.1151 10.366 22.1702C10.4361 22.2253 10.5215 22.2587 10.6113 22.2662C10.701 22.2736 10.791 22.2548 10.8697 22.2121L16.2423 19.2931L27.8634 5.27613C28.3136 4.72958 28.5234 4.03159 28.4469 3.33479C28.3704 2.63798 28.0137 1.99903 27.4549 1.55764Z" stroke="#F4B5A4" stroke-width="1.91" stroke-linecap="round" stroke-linejoin="round"/>
</svg>
