<svg width="29" height="23" viewBox="0 0 29 23" fill="none" xmlns="http://www.w3.org/2000/svg">
<path d="M2.75966 18.2847L2.84288 18.7014C3.04738 19.7205 3.64814 20.6167 4.51317 21.193C5.3782 21.7693 6.43677 21.9787 7.45619 21.7751L24.856 18.3004C25.8754 18.0969 26.7723 17.497 27.3496 16.6326C27.9269 15.7683 28.1374 14.7101 27.9348 13.6906L26.0415 4.2096C25.9407 3.70462 25.7413 3.22444 25.4549 2.7965C25.1684 2.36856 24.8004 2.00123 24.372 1.71548C23.9435 1.42973 23.463 1.23112 22.9578 1.13106C22.4525 1.03099 21.9326 1.0314 21.4276 1.13226L4.02776 4.60694C3.52269 4.7078 3.04241 4.90714 2.61437 5.19357C2.18633 5.48 1.81891 5.84795 1.53308 6.27634C1.24724 6.70473 1.04856 7.18522 0.948443 7.69036C0.848326 8.1955 0.848709 8.7154 0.949551 9.22038L2.75024 18.2375M1.01615 9.51611L26.09 4.50894M5.46456 13.4631L7.54528 13.0476M6.18324 17.062L11.2147 16.0573M17.7686 14.7485L19.8312 14.3366M22.4194 13.8197L24.482 13.4078" stroke="#4B4544" stroke-width="1.5" stroke-linecap="round" stroke-linejoin="round"/>
</svg>
