<svg width="36" stroke="#F4B5A4" height="44" viewBox="0 0 36 44" fill="none" xmlns="http://www.w3.org/2000/svg">
<path d="M8.79963 37.0832L8.43929 39.2277C8.39159 39.5342 8.41084 39.8474 8.49566 40.1458C8.58048 40.4442 8.72888 40.7208 8.93072 40.9565C9.13255 41.1923 9.38302 41.3817 9.66499 41.5118C9.94696 41.6418 10.2537 41.7094 10.5643 41.71H15.2923C15.6427 41.7151 15.9834 41.595 16.253 41.3715C16.5226 41.148 16.7034 40.8357 16.7629 40.4909L18.7262 28.6963H25.1381C26.3538 28.6921 27.5553 28.4355 28.6665 27.9428C29.7776 27.4501 30.7741 26.7322 31.5927 25.8345C32.4113 24.9368 33.0341 23.8789 33.4217 22.7281C33.8093 21.5772 33.9531 20.3584 33.8441 19.1491C33.7187 17.8091 33.2758 16.5182 32.5522 15.3829C31.8285 14.2477 30.8448 13.3007 29.6822 12.6202M9.9246 37.0832C10.3064 37.0841 10.6759 36.9483 10.9659 36.7003C11.256 36.4524 11.4475 36.1088 11.5055 35.7319L13.7114 21.7782H19.8144C21.2124 21.7741 22.5937 21.4752 23.8679 20.901C25.1421 20.3267 26.2806 19.4902 27.2087 18.4461C28.1368 17.4019 28.8336 16.1738 29.2535 14.842C29.6735 13.5103 29.807 12.105 29.6455 10.7181C29.3105 8.28132 28.0959 6.05063 26.23 4.44534C24.3641 2.84006 21.9754 1.97073 19.5129 2.00075H11.0349C9.95572 2.00132 8.91205 2.38612 8.09133 3.08604C7.2706 3.78596 6.72656 4.75516 6.5569 5.81964C6.5569 5.81964 3.44656 25.6926 2.14508 34.1382C2.08517 34.5009 2.10519 34.8722 2.20378 35.2263C2.30236 35.5804 2.47716 35.9088 2.7159 36.1885C2.95464 36.4682 3.25158 36.6925 3.58606 36.8458C3.92054 36.999 4.28449 37.0776 4.65249 37.0759L9.9246 37.0832ZM15.8879 7.57487H18.1527C19.2374 7.55487 20.2914 7.93475 21.1134 8.64194C21.9354 9.34913 22.4677 10.334 22.6086 11.4085C22.6778 12.0176 22.6177 12.6344 22.4323 13.2188C22.2468 13.8032 21.9401 14.3419 21.5322 14.7999C21.1242 15.258 20.6242 15.625 20.0647 15.8771C19.5052 16.1291 18.8988 16.2606 18.285 16.2629H14.5423L15.8879 7.57487Z"  stroke-width="2.8" stroke-linecap="round" stroke-linejoin="round"/>
</svg>
